<svg width="16" height="16" viewBox="0 0 16 16" fill="none" xmlns="http://www.w3.org/2000/svg">
<path d="M7.98258 1.00002C4.1166 1.00964 0.9904 4.15144 1.00002 8.01742C1.00965 11.8834 4.15144 15.0096 8.01742 15C11.8834 14.9904 15.0096 11.8486 15 7.98258C14.9904 4.11659 11.8486 0.990398 7.98258 1.00002Z" stroke="#85B6DA"/>
<path d="M5.64733 8.35941C5.45159 8.16463 5.4508 7.84805 5.64557 7.6523L8.81963 4.46241C9.0144 4.26667 9.33098 4.26588 9.52673 4.46065C9.72248 4.65543 9.72327 4.97201 9.52849 5.16776L6.70711 8.00322L9.54257 10.8246C9.73832 11.0194 9.73911 11.336 9.54433 11.5317C9.34955 11.7274 9.03297 11.7282 8.83723 11.5335L5.64733 8.35941ZM7.00125 8.50249L6.00125 8.50497L5.99876 7.50498L6.99876 7.50249L7.00125 8.50249Z" fill="#85B6DA"/>
</svg>
