<svg width="16" height="16" viewBox="0 0 16 16" fill="none" xmlns="http://www.w3.org/2000/svg">
<path d="M7.9584 14.9999C11.8243 15.0228 14.9769 11.9075 14.9999 8.0416C15.0229 4.17567 11.9075 1.0231 8.0416 1.00012C4.17568 0.977146 1.0231 4.09247 1.00013 7.9584C0.977151 11.8243 4.09248 14.9769 7.9584 14.9999Z" stroke="#85B6DA"/>
<path d="M10.3556 7.66044C10.5497 7.85686 10.5478 8.17344 10.3514 8.36753L7.15058 11.5305C6.95416 11.7246 6.63758 11.7228 6.44348 11.5263C6.24939 11.3299 6.25127 11.0134 6.44769 10.8193L9.29287 8.00768L6.4813 5.1625C6.28721 4.96608 6.28909 4.6495 6.48551 4.4554C6.68193 4.26131 6.9985 4.26319 7.1926 4.45961L10.3556 7.66044ZM9.00296 7.50595L10.0029 7.51189L9.997 8.51188L8.99701 8.50593L9.00296 7.50595Z" fill="#85B6DA"/>
</svg>
