<svg width="16" height="16" viewBox="0 0 16 16" fill="none" xmlns="http://www.w3.org/2000/svg">
<path d="M15 8C15 4.13401 11.866 1 8 1C4.13401 1 1 4.13401 1 8C1 11.866 4.13401 15 8 15C11.866 15 15 11.866 15 8Z" stroke="#85B6DA"/>
<path d="M7.64645 5.64645C7.84171 5.45118 8.15829 5.45118 8.35355 5.64645L11.5355 8.82843C11.7308 9.02369 11.7308 9.34027 11.5355 9.53553C11.3403 9.7308 11.0237 9.7308 10.8284 9.53553L8 6.70711L5.17157 9.53553C4.97631 9.7308 4.65973 9.7308 4.46447 9.53553C4.2692 9.34027 4.2692 9.02369 4.46447 8.82843L7.64645 5.64645ZM7.5 7V6H8.5V7H7.5Z" fill="#85B6DA"/>
</svg>
