<svg width="16" height="16" viewBox="0 0 16 16" fill="none" xmlns="http://www.w3.org/2000/svg">
<path d="M15 8C15 11.866 11.866 15 8 15C4.13401 15 1 11.866 1 8C1 4.13401 4.13401 1 8 1C11.866 1 15 4.13401 15 8Z" stroke="#85B6DA"/>
<path d="M7.64645 10.3536C7.84171 10.5488 8.15829 10.5488 8.35355 10.3536L11.5355 7.17157C11.7308 6.97631 11.7308 6.65973 11.5355 6.46447C11.3403 6.2692 11.0237 6.2692 10.8284 6.46447L8 9.29289L5.17157 6.46447C4.97631 6.2692 4.65973 6.2692 4.46447 6.46447C4.2692 6.65973 4.2692 6.97631 4.46447 7.17157L7.64645 10.3536ZM7.5 9V10H8.5V9H7.5Z" fill="#85B6DA"/>
</svg>
